<svg width="23" height="38" viewBox="0 0 23 38" xmlns="http://www.w3.org/2000/svg"><title>storyappylogo</title><defs><linearGradient x1="50%" y1="0%" x2="50%" y2="100%" id="a"><stop stop-color="#6F5ABA" offset="0%"/><stop stop-color="#8370C6" offset="50.504%"/><stop stop-color="#6F5ABA" offset="100%"/></linearGradient></defs><g fill="none" fill-rule="evenodd"><path d="M22.157 24.594l-17.42 4.343-2.45 8.73 17.421-4.343 2.449-8.73z" fill="#BA95E3"/><path d="M4.943 7.89h8.977l8.977 15.57H13.92L4.943 7.89z" fill="url(#a)" transform="rotate(-14 25.65 26.856)"/><path d="M20.84.755L3.418 5.1l-2.45 8.73L18.39 9.486l2.45-8.73z" fill="#BA95E3"/><path d="M20.84.755L3.418 5.1l-2.45 8.73 12.478 12.936-8.529 2.127-2.449 8.73 17.239-4.298 2.449-8.73L9.68 11.658l8.71-2.172 2.45-8.73z" stroke="#FFF" stroke-width=".6"/><path d="M4.918 28.892l6.216 6.377 2.313-8.504 6.26 6.56M.97 13.83l8.71-2.172-2.313 8.503 8.166-2.036-2.086 8.64 8.71-2.171" stroke="#FFF" stroke-width=".6"/><path d="M18.345 9.304l-6.17-6.195-2.495 8.549-6.034-6.422" stroke="#FFF" stroke-width=".6" stroke-linecap="square"/></g></svg>