<svg width="31" height="35" viewBox="0 0 31 35" xmlns="http://www.w3.org/2000/svg"><title>ic_add_alert_black_24px</title><g fill="none" fill-rule="evenodd"><path d="M-4-3h39v39H-4V-3z"/><path d="M12.266 31.141a3.232 3.232 0 0 0 3.234 3.234 3.232 3.232 0 0 0 3.234-3.234h-6.468zm14.414-6.808v-9.458c0-5.281-3.656-9.701-8.596-10.871v-1.17A2.58 2.58 0 0 0 15.5.25a2.58 2.58 0 0 0-2.584 2.584v1.17c-4.94 1.17-8.596 5.59-8.596 10.871v9.457L.875 27.777V29.5h29.25v-1.723l-3.445-3.445z" fill="#BA95E3"/></g></svg>